<svg id="visual" viewBox="0 0 900 600" width="900" height="600" xmlns="http://www.w3.org/2000/svg" xmlns:xlink="http://www.w3.org/1999/xlink" version="1.1"><rect width="900" height="600" fill="#dad8c1"></rect><g><g transform="translate(630 316)"><path d="M75.4 -27.5C83.5 0.4 66 33.6 38 54.5C9.9 75.4 -28.7 84.1 -49.8 68.7C-70.9 53.3 -74.4 14 -63.2 -18.2C-52 -50.4 -26 -75.5 3.8 -76.7C33.7 -78 67.3 -55.4 75.4 -27.5Z" fill="none" stroke="#e7700e" stroke-width="18"></path></g><g transform="translate(179 236)"><path d="M51.5 -17.4C59.4 7.5 53.4 36.4 34.1 51.4C14.8 66.5 -17.7 67.8 -40.7 52C-63.8 36.2 -77.4 3.3 -69 -22.3C-60.7 -47.9 -30.3 -66.2 -4.3 -64.8C21.8 -63.4 43.6 -42.3 51.5 -17.4Z" fill="none" stroke="#e7700e" stroke-width="18"></path></g><g transform="translate(458 34)"><path d="M62.3 -21.6C69.8 2.7 57.2 32.1 37.6 44.7C17.9 57.3 -8.8 53.1 -25.5 39.9C-42.2 26.6 -48.8 4.3 -42.9 -17.9C-36.9 -40.1 -18.5 -62.2 4.5 -63.6C27.4 -65.1 54.9 -45.9 62.3 -21.6Z" fill="none" stroke="#e7700e" stroke-width="18"></path></g><g transform="translate(238 540)"><path d="M51.6 -18C58.9 5.6 51.3 32.9 34.8 43.9C18.3 55 -7.1 49.9 -27.4 35.6C-47.6 21.4 -62.7 -1.9 -57.2 -23C-51.8 -44.1 -25.9 -62.9 -1.9 -62.3C22.2 -61.7 44.3 -41.6 51.6 -18Z" fill="none" stroke="#e7700e" stroke-width="18"></path></g><g transform="translate(781 81)"><path d="M56.1 -22C61.9 -0.5 48.3 23.6 27.2 39.4C6.1 55.1 -22.4 62.6 -40.3 50.8C-58.1 38.9 -65.3 7.7 -56.8 -17.6C-48.3 -42.8 -24.2 -62 0.5 -62.2C25.2 -62.3 50.4 -43.4 56.1 -22Z" fill="none" stroke="#e7700e" stroke-width="18"></path></g><g transform="translate(897 563)"><path d="M39.8 -11.6C45.4 4.3 39.5 25.2 25.4 35.7C11.2 46.1 -11.1 46 -26 35.3C-40.9 24.6 -48.3 3.2 -42.7 -12.6C-37.2 -28.5 -18.6 -38.9 -0.7 -38.6C17.1 -38.4 34.2 -27.5 39.8 -11.6Z" fill="none" stroke="#e7700e" stroke-width="18"></path></g></g></svg>